<svg width="1200" height="600" viewBox="0 0 1200 600" fill="none" xmlns="http://www.w3.org/2000/svg">
  <defs>
    <!-- Background gradient -->
    <linearGradient id="bg" x1="0%" y1="0%" x2="100%" y2="100%">
      <stop offset="0%" style="stop-color:#0A0A14;stop-opacity:1" />
      <stop offset="100%" style="stop-color:#1A1A2E;stop-opacity:1" />
    </linearGradient>

    <!-- Purple to Teal gradient -->
    <linearGradient id="accent" x1="0%" y1="0%" x2="100%" y2="100%">
      <stop offset="0%" style="stop-color:#8B5CF6;stop-opacity:1" />
      <stop offset="50%" style="stop-color:#6366F1;stop-opacity:1" />
      <stop offset="100%" style="stop-color:#2DD4BF;stop-opacity:1" />
    </linearGradient>

    <!-- Grid pattern -->
    <pattern id="grid" width="40" height="40" patternUnits="userSpaceOnUse">
      <path d="M 40 0 L 0 0 0 40" fill="none" stroke="rgba(139, 92, 246, 0.06)" stroke-width="1"/>
    </pattern>

    <!-- Geometric accent shapes -->
    <linearGradient id="shape1" x1="0%" y1="0%" x2="100%" y2="0%">
      <stop offset="0%" style="stop-color:#8B5CF6;stop-opacity:0.1" />
      <stop offset="100%" style="stop-color:#2DD4BF;stop-opacity:0.1" />
    </linearGradient>
  </defs>

  <rect width="1200" height="600" fill="url(#bg)"/>
  <rect width="1200" height="600" fill="url(#grid)"/>

  <!-- Geometric accent -->
  <rect x="50" y="50" width="180" height="180" fill="url(#shape1)" transform="rotate(45 140 140)"/>
  <rect x="970" y="370" width="150" height="150" fill="url(#shape1)" transform="rotate(30 1045 445)"/>

  <!-- All content centered in safe zone -->
  <g transform="translate(600, 300)">

    <!-- Logo and title - left top -->
    <g transform="translate(-500, -220)">
      <!-- Stylized S Logo -->
      <g transform="scale(2.5)">
        <!-- Top curve of S -->
        <rect x="4" y="0" width="16" height="4" rx="2" fill="#6366F1"/>
        <rect x="0" y="0" width="8" height="4" rx="2" fill="#6366F1"/>
        <rect x="0" y="4" width="4" height="6" rx="2" fill="#6366F1"/>

        <!-- Middle section -->
        <rect x="4" y="7" width="16" height="4" rx="2" fill="#2DD4BF"/>

        <!-- Bottom curve of S -->
        <rect x="16" y="11" width="4" height="6" rx="2" fill="#6366F1"/>
        <rect x="12" y="14" width="8" height="4" rx="2" fill="#6366F1"/>
        <rect x="0" y="14" width="16" height="4" rx="2" fill="#6366F1"/>
      </g>

      <text x="0" y="80" font-family="-apple-system, BlinkMacSystemFont, 'Segoe UI', Arial, sans-serif" font-size="42" font-weight="900" fill="white">
        SynthStack
      </text>

      <text x="0" y="110" font-family="-apple-system, BlinkMacSystemFont, 'Segoe UI', Arial, sans-serif" font-size="16" font-weight="500" fill="#94A3B8">
        Agency Plan
      </text>
    </g>

    <!-- Features grid - left side -->
    <g transform="translate(-500, -60)">
      <!-- Row 1 -->
      <g>
        <circle cx="14" cy="14" r="14" fill="rgba(139,92,246,0.15)"/>
        <circle cx="14" cy="14" r="7" fill="none" stroke="url(#accent)" stroke-width="2"/>
        <text x="14" y="17" font-family="-apple-system, BlinkMacSystemFont, 'Segoe UI', Arial, sans-serif" font-size="7" font-weight="900" fill="#8B5CF6" text-anchor="middle">
          500
        </text>
        <text x="38" y="20" font-family="-apple-system, BlinkMacSystemFont, 'Segoe UI', Arial, sans-serif" font-size="13" fill="#CBD5E1" font-weight="500">
          500 AI Credits/Day
        </text>
      </g>

      <g transform="translate(220, 0)">
        <circle cx="14" cy="14" r="14" fill="rgba(45,212,191,0.15)"/>
        <circle cx="11" cy="12" r="2" fill="url(#accent)" opacity="0.9"/>
        <circle cx="17" cy="12" r="2" fill="url(#accent)" opacity="0.9"/>
        <line x1="11" y1="12" x2="17" y2="12" stroke="url(#accent)" stroke-width="1.5"/>
        <circle cx="14" cy="16" r="2" fill="url(#accent)" opacity="0.7"/>
        <line x1="11" y1="12" x2="14" y2="16" stroke="url(#accent)" stroke-width="1.5"/>
        <line x1="17" y1="12" x2="14" y2="16" stroke="url(#accent)" stroke-width="1.5"/>
        <text x="38" y="20" font-family="-apple-system, BlinkMacSystemFont, 'Segoe UI', Arial, sans-serif" font-size="13" fill="#CBD5E1" font-weight="500">
          Team Collaboration
        </text>
      </g>

      <!-- Row 2 -->
      <g transform="translate(0, 42)">
        <circle cx="14" cy="14" r="14" fill="rgba(99,102,241,0.15)"/>
        <rect x="9" y="11" width="10" height="6" rx="1" fill="none" stroke="url(#accent)" stroke-width="2"/>
        <path d="M 12 11 L 14 9 L 16 11" stroke="url(#accent)" stroke-width="1.5" fill="none"/>
        <text x="38" y="20" font-family="-apple-system, BlinkMacSystemFont, 'Segoe UI', Arial, sans-serif" font-size="13" fill="#CBD5E1" font-weight="500">
          White-Label Exports
        </text>
      </g>

      <g transform="translate(220, 42)">
        <circle cx="14" cy="14" r="14" fill="rgba(139,92,246,0.15)"/>
        <polygon points="14,9 15.5,12.5 19,13 16.5,15.5 17,19 14,17 11,19 11.5,15.5 9,13 12.5,12.5" fill="url(#accent)" opacity="0.9"/>
        <text x="38" y="20" font-family="-apple-system, BlinkMacSystemFont, 'Segoe UI', Arial, sans-serif" font-size="13" fill="#CBD5E1" font-weight="500">
          Custom Profiles
        </text>
      </g>

      <!-- Row 3 -->
      <g transform="translate(0, 84)">
        <circle cx="14" cy="14" r="14" fill="rgba(236,72,153,0.15)"/>
        <circle cx="14" cy="14" r="5" fill="none" stroke="url(#accent)" stroke-width="2"/>
        <path d="M 14 9 L 14 6 M 14 19 L 14 22 M 9 14 L 6 14 M 19 14 L 22 14" stroke="url(#accent)" stroke-width="1.5" stroke-linecap="round"/>
        <text x="38" y="20" font-family="-apple-system, BlinkMacSystemFont, 'Segoe UI', Arial, sans-serif" font-size="13" fill="#CBD5E1" font-weight="500">
          Dedicated Support
        </text>
      </g>
    </g>

    <!-- Pricing section - right side -->
    <g transform="translate(180, -160)">
      <!-- Agency plan badge -->
      <text x="0" y="0" font-family="-apple-system, BlinkMacSystemFont, 'Segoe UI', Arial, sans-serif" font-size="10" font-weight="700" fill="url(#accent)" text-anchor="start" letter-spacing="1.2">
        AGENCY PLAN
      </text>

      <!-- Main price -->
      <text x="0" y="70" font-family="-apple-system, BlinkMacSystemFont, 'Segoe UI', Arial, sans-serif" font-size="72" font-weight="900" fill="white" text-anchor="start">
        $39.99
      </text>

      <!-- Per month -->
      <text x="230" y="70" font-family="-apple-system, BlinkMacSystemFont, 'Segoe UI', Arial, sans-serif" font-size="24" fill="#64748B" text-anchor="start">
        /mo
      </text>

      <!-- Annual pricing note -->
      <text x="0" y="95" font-family="-apple-system, BlinkMacSystemFont, 'Segoe UI', Arial, sans-serif" font-size="11" font-weight="500" fill="#94A3B8" text-anchor="start">
        $29.99/mo billed annually
      </text>

      <!-- Benefits -->
      <text x="0" y="130" font-family="-apple-system, BlinkMacSystemFont, 'Segoe UI', Arial, sans-serif" font-size="13" font-weight="600" fill="#94A3B8" text-anchor="start">
        ✓ 500 AI Credits Daily
      </text>
      <text x="0" y="152" font-family="-apple-system, BlinkMacSystemFont, 'Segoe UI', Arial, sans-serif" font-size="13" font-weight="600" fill="#94A3B8" text-anchor="start">
        ✓ Team Features
      </text>
      <text x="0" y="174" font-family="-apple-system, BlinkMacSystemFont, 'Segoe UI', Arial, sans-serif" font-size="13" font-weight="600" fill="#94A3B8" text-anchor="start">
        ✓ White-Label
      </text>

      <!-- CTA -->
      <text x="0" y="210" font-family="-apple-system, BlinkMacSystemFont, 'Segoe UI', Arial, sans-serif" font-size="16" font-weight="700" fill="url(#accent)" text-anchor="start">
        Contact Sales →
      </text>
    </g>
  </g>
</svg>
